<?xml version="1.0" encoding="UTF-8"?>
<svg id="Layer_2" data-name="Layer 2" xmlns="http://www.w3.org/2000/svg" viewBox="0 0 449.42 150.46">
  <defs>
    <style>
      .cls-1 {
        fill: #b62b35;
      }

      .cls-2 {
        fill: #13293e;
      }
    </style>
  </defs>
  <g id="Layer_1-2" data-name="Layer 1">
    <g>
      <g>
        <g>
          <path class="cls-1" d="m99.83,46.74h10.74c-2.29-9.11-10.06-26.28-36.24-26.28-10.21,0-19.81,3.83-26.31,10.51-4.44,4.55-7.13,10.06-7.77,15.78h10.57c.6-3,2.21-5.94,4.69-8.48,4.55-4.67,11.42-7.35,18.83-7.35,17.13,0,23.29,9.31,25.5,15.82Z"/>
          <path class="cls-1" d="m74.8,113.4c1.49.06,3,.04,4.49-.06V30.75h-10.12v82.01c1.89.34,3.79.56,5.62.63Z"/>
          <g>
            <path class="cls-2" d="m62.92,76.58v-11.42c-6.42-3.19-10.54-7.37-11.89-12.17h-10.65c.78,4.96,3.15,9.68,6.97,13.69,3.87,4.08,9.1,7.38,15.58,9.9Z"/>
            <path class="cls-2" d="m85.56,72.15v11.17c12.33,4.84,17.06,11.74,15.55,21.95-1.48,10-14.36,14.74-26.3,14.24-19.48-.81-27.11-12.21-27.71-21.72l-10.44.67c.62,9.65,5.12,17.77,13.03,23.5,6.6,4.78,15.37,7.62,24.69,8.01.79.03,1.56.05,2.34.05,18.56,0,32.69-9.33,34.75-23.21,3.16-21.41-13.36-30.51-25.9-34.64Z"/>
          </g>
        </g>
        <path class="cls-2" d="m75.23,150.46C33.75,150.46,0,116.71,0,75.23S33.75,0,75.23,0s75.23,33.75,75.23,75.23-33.75,75.23-75.23,75.23Zm0-140C39.51,10.46,10.46,39.51,10.46,75.23s29.06,64.77,64.77,64.77,64.77-29.06,64.77-64.77S110.94,10.46,75.23,10.46Z"/>
      </g>
      <g>
        <g>
          <path class="cls-1" d="m168.4,106.69c0-14.06,9.7-24.15,23.16-24.15,11.75,0,20.06,7.72,20.99,19.4l-9.11.66c-1.06-7.99-5.34-12.54-11.81-12.54-8.12,0-14.12,7.19-14.12,16.76s5.94,16.56,14.06,16.56c6.47,0,10.69-4.42,11.88-12.27l9.11.66c-.92,11.48-9.3,19.07-20.92,19.07-13.46,0-23.23-10.1-23.23-24.15Z"/>
          <path class="cls-1" d="m218.63,106.69c0-14.19,9.57-24.15,23.23-24.15s23.23,9.97,23.23,24.15-9.57,24.15-23.23,24.15-23.23-9.96-23.23-24.15Zm37.35,0c0-9.96-5.74-16.7-14.12-16.7s-14.12,6.73-14.12,16.7,5.74,16.7,14.12,16.7,14.12-6.73,14.12-16.7Z"/>
          <path class="cls-1" d="m271.69,112.5v-28.91h9.11v28.91c0,5.94,3.3,10.89,9.24,10.89s9.17-4.95,9.17-10.89v-28.91h9.11v28.91c0,10.76-7.52,18.35-18.28,18.35s-18.35-7.59-18.35-18.35Z"/>
          <path class="cls-1" d="m316.5,83.6h15.84c10.82,0,17.88,5.28,17.88,13.33,0,5.81-3.7,10.16-9.24,11.55,5.81.92,8.78,4.95,9.17,12.08l.53,9.24h-9.11l-.72-10.76c-.33-5.35-2.71-7.59-7.85-7.59h-7.39v18.35h-9.11v-46.2Zm24.62,13.92c0-3.96-3.43-6.47-8.78-6.47h-6.73v12.94h6.73c5.35,0,8.78-2.51,8.78-6.47Z"/>
          <path class="cls-1" d="m358.88,83.6h9.11v46.2h-9.11v-46.2Z"/>
          <path class="cls-1" d="m376.96,83.6h30.88v7.46h-21.78v11.02h17.82v7.46h-17.82v12.8h21.78v7.46h-30.88v-46.2Z"/>
          <path class="cls-1" d="m415.24,83.6h15.84c10.82,0,17.88,5.28,17.88,13.33,0,5.81-3.7,10.16-9.24,11.55,5.81.92,8.78,4.95,9.17,12.08l.53,9.24h-9.11l-.72-10.76c-.33-5.35-2.71-7.59-7.85-7.59h-7.39v18.35h-9.11v-46.2Zm24.62,13.92c0-3.96-3.43-6.47-8.78-6.47h-6.73v12.94h6.73c5.35,0,8.78-2.51,8.78-6.47Z"/>
        </g>
        <g>
          <path class="cls-2" d="m167.15,50.2l9.17-.66c0,6.2,3.96,10.96,10.23,10.96,3.96,0,8.18-1.91,8.18-5.81,0-9.44-25.01-6.07-25.01-21.65,0-8.12,6.8-13.4,15.9-13.4,8.32,0,16.3,4.42,17.03,12.87l-9.11.66c-.59-3.89-4.16-6.07-7.92-6.07s-6.8,1.98-6.8,5.21c0,9.04,25.01,6.73,25.01,21.51,0,8.05-7.59,14.12-17.69,14.12-10.82,0-19.01-7.06-19.01-17.75Z"/>
          <path class="cls-2" d="m221.4,28.16h-16.5v-7.46h42.1v7.46h-16.5v38.74h-9.11V28.16Z"/>
        </g>
      </g>
    </g>
  </g>
</svg>